<mxfile host="app.diagrams.net" modified="2022-03-16T14:58:54.843Z" agent="5.0 (Windows NT 10.0; Win64; x64) AppleWebKit/537.36 (KHTML, like Gecko) Chrome/99.0.4844.51 Safari/537.36" etag="ZsnRjAAkFSqkej4dZt1D" version="17.1.2" type="github">
  <diagram id="opJ-o_69_9uuXCHjIqMQ" name="Page-1">
    <mxGraphModel dx="2031" dy="1171" grid="1" gridSize="10" guides="1" tooltips="1" connect="1" arrows="1" fold="1" page="1" pageScale="1" pageWidth="10000" pageHeight="10000" math="0" shadow="0">
      <root>
        <mxCell id="0" />
        <mxCell id="1" parent="0" />
        <mxCell id="tkHvrC6bL8gg-4b78C7X-1" value="" style="verticalLabelPosition=bottom;verticalAlign=top;html=1;shadow=0;dashed=0;strokeWidth=1;shape=mxgraph.android.phone2;strokeColor=#c0c0c0;" vertex="1" parent="1">
          <mxGeometry x="60" y="20" width="260" height="530" as="geometry" />
        </mxCell>
        <mxCell id="tkHvrC6bL8gg-4b78C7X-5" value="背景音乐" style="rounded=1;html=1;shadow=0;dashed=0;whiteSpace=wrap;fontSize=10;fillColor=#666666;align=center;strokeColor=#4D4D4D;fontColor=#ffffff;" vertex="1" parent="1">
          <mxGeometry x="70" y="370" width="80" height="80" as="geometry" />
        </mxCell>
        <mxCell id="tkHvrC6bL8gg-4b78C7X-6" value="音效" style="rounded=1;html=1;shadow=0;dashed=0;whiteSpace=wrap;fontSize=10;fillColor=#666666;align=center;strokeColor=#4D4D4D;fontColor=#ffffff;" vertex="1" parent="1">
          <mxGeometry x="150" y="370" width="80" height="80" as="geometry" />
        </mxCell>
        <mxCell id="tkHvrC6bL8gg-4b78C7X-73" style="edgeStyle=orthogonalEdgeStyle;rounded=0;orthogonalLoop=1;jettySize=auto;html=1;" edge="1" parent="1" source="tkHvrC6bL8gg-4b78C7X-7" target="tkHvrC6bL8gg-4b78C7X-68">
          <mxGeometry relative="1" as="geometry" />
        </mxCell>
        <mxCell id="tkHvrC6bL8gg-4b78C7X-7" value="排行榜" style="rounded=1;html=1;shadow=0;dashed=0;whiteSpace=wrap;fontSize=10;fillColor=#666666;align=center;strokeColor=#4D4D4D;fontColor=#ffffff;" vertex="1" parent="1">
          <mxGeometry x="230" y="370" width="80" height="80" as="geometry" />
        </mxCell>
        <mxCell id="tkHvrC6bL8gg-4b78C7X-29" style="edgeStyle=orthogonalEdgeStyle;rounded=0;orthogonalLoop=1;jettySize=auto;html=1;entryX=0.004;entryY=0.406;entryDx=0;entryDy=0;entryPerimeter=0;" edge="1" parent="1" source="tkHvrC6bL8gg-4b78C7X-8" target="tkHvrC6bL8gg-4b78C7X-21">
          <mxGeometry relative="1" as="geometry" />
        </mxCell>
        <mxCell id="tkHvrC6bL8gg-4b78C7X-8" value="开始游戏" style="rounded=1;html=1;shadow=0;dashed=0;whiteSpace=wrap;fontSize=10;fillColor=#999999;align=center;strokeColor=#666666;fontColor=#ffffff;strokeWidth=2;" vertex="1" parent="1">
          <mxGeometry x="87.25" y="240" width="205.5" height="50" as="geometry" />
        </mxCell>
        <mxCell id="tkHvrC6bL8gg-4b78C7X-9" value="" style="verticalLabelPosition=bottom;verticalAlign=top;html=1;shadow=0;dashed=0;strokeWidth=1;shape=mxgraph.android.phone2;strokeColor=#c0c0c0;" vertex="1" parent="1">
          <mxGeometry x="440" y="675" width="260" height="530" as="geometry" />
        </mxCell>
        <mxCell id="tkHvrC6bL8gg-4b78C7X-10" value="排名" style="rounded=1;html=1;shadow=0;dashed=0;whiteSpace=wrap;fontSize=10;fillColor=#999999;align=center;strokeColor=#666666;fontColor=#ffffff;strokeWidth=2;" vertex="1" parent="1">
          <mxGeometry x="77.25" y="820" width="205.5" height="50" as="geometry" />
        </mxCell>
        <mxCell id="tkHvrC6bL8gg-4b78C7X-12" value="" style="verticalLabelPosition=bottom;verticalAlign=top;html=1;shadow=0;dashed=0;strokeWidth=1;shape=mxgraph.android.switch_off;fillColor=#E6E6E6;sketch=0;" vertex="1" parent="1">
          <mxGeometry x="70" y="420" width="80" height="20" as="geometry" />
        </mxCell>
        <mxCell id="tkHvrC6bL8gg-4b78C7X-13" value="" style="verticalLabelPosition=bottom;verticalAlign=top;html=1;shadow=0;dashed=0;strokeWidth=1;shape=mxgraph.android.switch_off;fillColor=#E6E6E6;sketch=0;" vertex="1" parent="1">
          <mxGeometry x="150" y="420" width="80" height="20" as="geometry" />
        </mxCell>
        <mxCell id="tkHvrC6bL8gg-4b78C7X-14" value="第一名" style="strokeWidth=1;html=1;shadow=0;dashed=0;shape=mxgraph.android.textfield;align=center;strokeColor=#999999;pointerEvents=1" vertex="1" parent="1">
          <mxGeometry x="483" y="970" width="174" height="30" as="geometry" />
        </mxCell>
        <mxCell id="tkHvrC6bL8gg-4b78C7X-15" value="第一名" style="strokeWidth=1;html=1;shadow=0;dashed=0;shape=mxgraph.android.textfield;align=center;strokeColor=#999999;pointerEvents=1" vertex="1" parent="1">
          <mxGeometry x="483" y="1000" width="174" height="30" as="geometry" />
        </mxCell>
        <mxCell id="tkHvrC6bL8gg-4b78C7X-16" value="第一名" style="strokeWidth=1;html=1;shadow=0;dashed=0;shape=mxgraph.android.textfield;align=center;strokeColor=#999999;pointerEvents=1" vertex="1" parent="1">
          <mxGeometry x="483" y="1030" width="174" height="30" as="geometry" />
        </mxCell>
        <mxCell id="tkHvrC6bL8gg-4b78C7X-17" value="第一名" style="strokeWidth=1;html=1;shadow=0;dashed=0;shape=mxgraph.android.textfield;align=center;strokeColor=#999999;pointerEvents=1" vertex="1" parent="1">
          <mxGeometry x="483" y="1060" width="174" height="30" as="geometry" />
        </mxCell>
        <mxCell id="tkHvrC6bL8gg-4b78C7X-18" value="第一名" style="strokeWidth=1;html=1;shadow=0;dashed=0;shape=mxgraph.android.textfield;align=center;strokeColor=#999999;pointerEvents=1" vertex="1" parent="1">
          <mxGeometry x="483" y="1090" width="174" height="30" as="geometry" />
        </mxCell>
        <mxCell id="tkHvrC6bL8gg-4b78C7X-19" value="" style="strokeWidth=1;html=1;shadow=0;dashed=0;shape=mxgraph.android.action_bar;fillColor=#1A1A1A;strokeColor=#c0c0c0;strokeWidth=2;fontColor=#FFFFFF;" vertex="1" parent="1">
          <mxGeometry x="450" y="740" width="240" height="30" as="geometry" />
        </mxCell>
        <mxCell id="tkHvrC6bL8gg-4b78C7X-21" value="" style="verticalLabelPosition=bottom;verticalAlign=top;html=1;shadow=0;dashed=0;strokeWidth=1;shape=mxgraph.android.phone2;strokeColor=#c0c0c0;" vertex="1" parent="1">
          <mxGeometry x="440" y="20" width="260" height="530" as="geometry" />
        </mxCell>
        <mxCell id="tkHvrC6bL8gg-4b78C7X-36" style="edgeStyle=orthogonalEdgeStyle;rounded=0;orthogonalLoop=1;jettySize=auto;html=1;entryX=-0.004;entryY=0.287;entryDx=0;entryDy=0;entryPerimeter=0;" edge="1" parent="1" source="tkHvrC6bL8gg-4b78C7X-22" target="tkHvrC6bL8gg-4b78C7X-33">
          <mxGeometry relative="1" as="geometry" />
        </mxCell>
        <mxCell id="tkHvrC6bL8gg-4b78C7X-22" value="第一关&amp;nbsp;" style="rounded=1;html=1;shadow=0;dashed=0;whiteSpace=wrap;fontSize=10;fillColor=#999999;align=center;strokeColor=#666666;fontColor=#ffffff;strokeWidth=2;" vertex="1" parent="1">
          <mxGeometry x="467.25" y="170" width="205.5" height="50" as="geometry" />
        </mxCell>
        <mxCell id="tkHvrC6bL8gg-4b78C7X-28" value="" style="strokeWidth=1;html=1;shadow=0;dashed=0;shape=mxgraph.android.action_bar;fillColor=#1A1A1A;strokeColor=#c0c0c0;strokeWidth=2;fontColor=#FFFFFF;" vertex="1" parent="1">
          <mxGeometry x="450" y="70" width="240" height="30" as="geometry" />
        </mxCell>
        <mxCell id="tkHvrC6bL8gg-4b78C7X-30" value="第二关" style="rounded=1;html=1;shadow=0;dashed=0;whiteSpace=wrap;fontSize=10;fillColor=#999999;align=center;strokeColor=#666666;fontColor=#ffffff;strokeWidth=2;" vertex="1" parent="1">
          <mxGeometry x="467.25" y="240" width="205.5" height="50" as="geometry" />
        </mxCell>
        <mxCell id="tkHvrC6bL8gg-4b78C7X-31" value="第三关&amp;nbsp;" style="rounded=1;html=1;shadow=0;dashed=0;whiteSpace=wrap;fontSize=10;fillColor=#999999;align=center;strokeColor=#666666;fontColor=#ffffff;strokeWidth=2;" vertex="1" parent="1">
          <mxGeometry x="467.25" y="310" width="205.5" height="50" as="geometry" />
        </mxCell>
        <mxCell id="tkHvrC6bL8gg-4b78C7X-76" style="edgeStyle=orthogonalEdgeStyle;rounded=0;orthogonalLoop=1;jettySize=auto;html=1;entryX=0;entryY=0.491;entryDx=0;entryDy=0;entryPerimeter=0;" edge="1" parent="1" source="tkHvrC6bL8gg-4b78C7X-33" target="tkHvrC6bL8gg-4b78C7X-60">
          <mxGeometry relative="1" as="geometry">
            <mxPoint x="1099.9999999999995" y="280" as="targetPoint" />
          </mxGeometry>
        </mxCell>
        <mxCell id="tkHvrC6bL8gg-4b78C7X-77" style="edgeStyle=orthogonalEdgeStyle;rounded=0;orthogonalLoop=1;jettySize=auto;html=1;" edge="1" parent="1" source="tkHvrC6bL8gg-4b78C7X-33">
          <mxGeometry relative="1" as="geometry">
            <mxPoint x="939.9999999999995" y="660" as="targetPoint" />
          </mxGeometry>
        </mxCell>
        <mxCell id="tkHvrC6bL8gg-4b78C7X-33" value="" style="verticalLabelPosition=bottom;verticalAlign=top;html=1;shadow=0;dashed=0;strokeWidth=1;shape=mxgraph.android.phone2;strokeColor=#c0c0c0;" vertex="1" parent="1">
          <mxGeometry x="810" y="20" width="260" height="530" as="geometry" />
        </mxCell>
        <mxCell id="tkHvrC6bL8gg-4b78C7X-34" value="" style="strokeWidth=1;html=1;shadow=0;dashed=0;shape=mxgraph.android.textfield;align=center;strokeColor=#999999;pointerEvents=1" vertex="1" parent="1">
          <mxGeometry x="853" y="70" width="174" height="20" as="geometry" />
        </mxCell>
        <mxCell id="tkHvrC6bL8gg-4b78C7X-35" value="第一关&amp;nbsp; &amp;nbsp; &amp;nbsp; &amp;nbsp; &amp;nbsp; &amp;nbsp;时间 10：20&amp;nbsp; &amp;nbsp; &amp;nbsp; &amp;nbsp;&amp;nbsp;" style="strokeWidth=1;html=1;shadow=0;dashed=0;shape=mxgraph.android.action_bar;fillColor=#1A1A1A;strokeColor=#c0c0c0;strokeWidth=2;fontColor=#FFFFFF;" vertex="1" parent="1">
          <mxGeometry x="820" y="70" width="240" height="30" as="geometry" />
        </mxCell>
        <mxCell id="tkHvrC6bL8gg-4b78C7X-37" value="" style="verticalLabelPosition=bottom;verticalAlign=top;html=1;shadow=0;dashed=0;strokeWidth=1;strokeColor=none;shape=rect;fillColor=#0099cc;" vertex="1" parent="1">
          <mxGeometry x="840" y="130" width="200" height="340" as="geometry" />
        </mxCell>
        <mxCell id="tkHvrC6bL8gg-4b78C7X-41" value="" style="verticalLabelPosition=bottom;verticalAlign=top;html=1;shadow=0;dashed=0;strokeWidth=1;shape=mxgraph.android.phone2;strokeColor=#c0c0c0;" vertex="1" parent="1">
          <mxGeometry x="810" y="670" width="260" height="530" as="geometry" />
        </mxCell>
        <mxCell id="tkHvrC6bL8gg-4b78C7X-42" value="" style="strokeWidth=1;html=1;shadow=0;dashed=0;shape=mxgraph.android.textfield;align=center;strokeColor=#999999;pointerEvents=1" vertex="1" parent="1">
          <mxGeometry x="853" y="720" width="174" height="20" as="geometry" />
        </mxCell>
        <mxCell id="tkHvrC6bL8gg-4b78C7X-43" value="第一关&amp;nbsp; &amp;nbsp; &amp;nbsp; &amp;nbsp; &amp;nbsp; &amp;nbsp;时间 10：20&amp;nbsp; &amp;nbsp; &amp;nbsp; &amp;nbsp;&amp;nbsp;" style="strokeWidth=1;html=1;shadow=0;dashed=0;shape=mxgraph.android.action_bar;fillColor=#1A1A1A;strokeColor=#c0c0c0;strokeWidth=2;fontColor=#FFFFFF;" vertex="1" parent="1">
          <mxGeometry x="820" y="720" width="240" height="30" as="geometry" />
        </mxCell>
        <mxCell id="tkHvrC6bL8gg-4b78C7X-44" value="" style="verticalLabelPosition=bottom;verticalAlign=top;html=1;shadow=0;dashed=0;strokeWidth=1;strokeColor=none;shape=rect;fillColor=#0099cc;" vertex="1" parent="1">
          <mxGeometry x="840" y="780" width="200" height="340" as="geometry" />
        </mxCell>
        <mxCell id="tkHvrC6bL8gg-4b78C7X-52" value="" style="verticalLabelPosition=bottom;verticalAlign=top;html=1;shadow=0;dashed=0;strokeWidth=1;strokeColor=none;shape=rect;fillColor=#ffbb33;" vertex="1" parent="1">
          <mxGeometry x="840" y="810" width="200" height="260" as="geometry" />
        </mxCell>
        <mxCell id="tkHvrC6bL8gg-4b78C7X-53" value="第一关" style="strokeWidth=1;html=1;shadow=0;dashed=0;shape=mxgraph.android.textfield;align=center;strokeColor=#999999;pointerEvents=1" vertex="1" parent="1">
          <mxGeometry x="853" y="820" width="174" height="30" as="geometry" />
        </mxCell>
        <mxCell id="tkHvrC6bL8gg-4b78C7X-54" value="分数" style="strokeWidth=1;html=1;shadow=0;dashed=0;shape=mxgraph.android.textfield;align=center;strokeColor=#999999;pointerEvents=1" vertex="1" parent="1">
          <mxGeometry x="853" y="860" width="174" height="30" as="geometry" />
        </mxCell>
        <mxCell id="tkHvrC6bL8gg-4b78C7X-55" value="用时" style="strokeWidth=1;html=1;shadow=0;dashed=0;shape=mxgraph.android.textfield;align=center;strokeColor=#999999;pointerEvents=1" vertex="1" parent="1">
          <mxGeometry x="853" y="910" width="174" height="30" as="geometry" />
        </mxCell>
        <mxCell id="tkHvrC6bL8gg-4b78C7X-56" value="选关" style="rounded=1;html=1;shadow=0;dashed=0;whiteSpace=wrap;fontSize=10;fillColor=#666666;align=center;strokeColor=#4D4D4D;fontColor=#ffffff;" vertex="1" parent="1">
          <mxGeometry x="840" y="1020" width="50" height="50" as="geometry" />
        </mxCell>
        <mxCell id="tkHvrC6bL8gg-4b78C7X-57" value="下一关" style="rounded=1;html=1;shadow=0;dashed=0;whiteSpace=wrap;fontSize=10;fillColor=#666666;align=center;strokeColor=#4D4D4D;fontColor=#ffffff;" vertex="1" parent="1">
          <mxGeometry x="915" y="1020" width="50" height="50" as="geometry" />
        </mxCell>
        <mxCell id="tkHvrC6bL8gg-4b78C7X-58" value="重开" style="rounded=1;html=1;shadow=0;dashed=0;whiteSpace=wrap;fontSize=10;fillColor=#666666;align=center;strokeColor=#4D4D4D;fontColor=#ffffff;" vertex="1" parent="1">
          <mxGeometry x="990" y="1020" width="50" height="50" as="geometry" />
        </mxCell>
        <mxCell id="tkHvrC6bL8gg-4b78C7X-67" style="edgeStyle=orthogonalEdgeStyle;rounded=0;orthogonalLoop=1;jettySize=auto;html=1;entryX=1.008;entryY=0.3;entryDx=0;entryDy=0;entryPerimeter=0;" edge="1" parent="1" source="tkHvrC6bL8gg-4b78C7X-60" target="tkHvrC6bL8gg-4b78C7X-41">
          <mxGeometry relative="1" as="geometry">
            <Array as="points">
              <mxPoint x="1100" y="330" />
              <mxPoint x="1100" y="829" />
            </Array>
          </mxGeometry>
        </mxCell>
        <mxCell id="tkHvrC6bL8gg-4b78C7X-60" value="" style="verticalLabelPosition=bottom;verticalAlign=top;html=1;shadow=0;dashed=0;strokeWidth=1;shape=mxgraph.android.phone2;strokeColor=#c0c0c0;" vertex="1" parent="1">
          <mxGeometry x="1120" y="20" width="260" height="530" as="geometry" />
        </mxCell>
        <mxCell id="tkHvrC6bL8gg-4b78C7X-61" value="" style="strokeWidth=1;html=1;shadow=0;dashed=0;shape=mxgraph.android.textfield;align=center;strokeColor=#999999;pointerEvents=1" vertex="1" parent="1">
          <mxGeometry x="1163" y="70" width="174" height="20" as="geometry" />
        </mxCell>
        <mxCell id="tkHvrC6bL8gg-4b78C7X-62" value="第一关&amp;nbsp; &amp;nbsp; &amp;nbsp; &amp;nbsp; &amp;nbsp; &amp;nbsp;时间 10：20&amp;nbsp; &amp;nbsp; &amp;nbsp; &amp;nbsp;&amp;nbsp;" style="strokeWidth=1;html=1;shadow=0;dashed=0;shape=mxgraph.android.action_bar;fillColor=#1A1A1A;strokeColor=#c0c0c0;strokeWidth=2;fontColor=#FFFFFF;" vertex="1" parent="1">
          <mxGeometry x="1130" y="70" width="240" height="30" as="geometry" />
        </mxCell>
        <mxCell id="tkHvrC6bL8gg-4b78C7X-63" value="" style="verticalLabelPosition=bottom;verticalAlign=top;html=1;shadow=0;dashed=0;strokeWidth=1;strokeColor=none;shape=rect;fillColor=#0099cc;" vertex="1" parent="1">
          <mxGeometry x="1150" y="130" width="200" height="340" as="geometry" />
        </mxCell>
        <mxCell id="tkHvrC6bL8gg-4b78C7X-65" value="" style="verticalLabelPosition=bottom;verticalAlign=top;html=1;shadow=0;dashed=0;strokeWidth=1;strokeColor=none;shape=rect;fillColor=#99cc00;" vertex="1" parent="1">
          <mxGeometry x="1180" y="170" width="130" height="160" as="geometry" />
        </mxCell>
        <mxCell id="tkHvrC6bL8gg-4b78C7X-66" value="新纪录" style="strokeWidth=1;html=1;shadow=0;dashed=0;shape=mxgraph.android.textfield;align=center;strokeColor=#999999;pointerEvents=1" vertex="1" parent="1">
          <mxGeometry x="1158" y="180" width="174" height="30" as="geometry" />
        </mxCell>
        <mxCell id="tkHvrC6bL8gg-4b78C7X-68" value="" style="verticalLabelPosition=bottom;verticalAlign=top;html=1;shadow=0;dashed=0;strokeWidth=1;shape=mxgraph.android.phone2;strokeColor=#c0c0c0;" vertex="1" parent="1">
          <mxGeometry x="50" y="670" width="260" height="530" as="geometry" />
        </mxCell>
        <mxCell id="tkHvrC6bL8gg-4b78C7X-75" style="edgeStyle=orthogonalEdgeStyle;rounded=0;orthogonalLoop=1;jettySize=auto;html=1;entryX=0.045;entryY=0.416;entryDx=0;entryDy=0;entryPerimeter=0;" edge="1" parent="1" source="tkHvrC6bL8gg-4b78C7X-69" target="tkHvrC6bL8gg-4b78C7X-9">
          <mxGeometry relative="1" as="geometry" />
        </mxCell>
        <mxCell id="tkHvrC6bL8gg-4b78C7X-69" value="第一关&amp;nbsp;" style="rounded=1;html=1;shadow=0;dashed=0;whiteSpace=wrap;fontSize=10;fillColor=#999999;align=center;strokeColor=#666666;fontColor=#ffffff;strokeWidth=2;" vertex="1" parent="1">
          <mxGeometry x="77.25" y="890" width="205.5" height="50" as="geometry" />
        </mxCell>
        <mxCell id="tkHvrC6bL8gg-4b78C7X-70" value="" style="strokeWidth=1;html=1;shadow=0;dashed=0;shape=mxgraph.android.action_bar;fillColor=#1A1A1A;strokeColor=#c0c0c0;strokeWidth=2;fontColor=#FFFFFF;" vertex="1" parent="1">
          <mxGeometry x="60" y="715" width="240" height="30" as="geometry" />
        </mxCell>
        <mxCell id="tkHvrC6bL8gg-4b78C7X-71" value="第二关" style="rounded=1;html=1;shadow=0;dashed=0;whiteSpace=wrap;fontSize=10;fillColor=#999999;align=center;strokeColor=#666666;fontColor=#ffffff;strokeWidth=2;" vertex="1" parent="1">
          <mxGeometry x="77.25" y="960" width="205.5" height="50" as="geometry" />
        </mxCell>
        <mxCell id="tkHvrC6bL8gg-4b78C7X-72" value="第三关&amp;nbsp;" style="rounded=1;html=1;shadow=0;dashed=0;whiteSpace=wrap;fontSize=10;fillColor=#999999;align=center;strokeColor=#666666;fontColor=#ffffff;strokeWidth=2;" vertex="1" parent="1">
          <mxGeometry x="77.25" y="1030" width="205.5" height="50" as="geometry" />
        </mxCell>
        <mxCell id="tkHvrC6bL8gg-4b78C7X-74" value="排名" style="rounded=1;html=1;shadow=0;dashed=0;whiteSpace=wrap;fontSize=10;fillColor=#999999;align=center;strokeColor=#666666;fontColor=#ffffff;strokeWidth=2;" vertex="1" parent="1">
          <mxGeometry x="460" y="830" width="205.5" height="50" as="geometry" />
        </mxCell>
      </root>
    </mxGraphModel>
  </diagram>
</mxfile>
